<?xml version="1.0" encoding="UTF-8" standalone="no"?>
<svg xmlns="http://www.w3.org/2000/svg" xmlns:xlink="http://www.w3.org/1999/xlink" width="369" height="429" viewBox="-268 -358 369 429"><style type="text/css">
    .leaf {
      font-family: -apple-system, BlinkMacSystemFont, "Segoe UI", Roboto, Oxygen, Ubuntu, Cantarell, "Fira Sans", "Droid Sans", "Helvetica Neue", sans-serif;
      fill: #3eaf7c;
    }
    .wraptext {
      font-family: -apple-system, BlinkMacSystemFont, "Segoe UI", Roboto, Oxygen, Ubuntu, Cantarell, "Fira Sans", "Droid Sans", "Helvetica Neue", sans-serif;
    }
    .wrap {
      border-radius: 4px;
      stroke-width: 1px; stroke: #666;
      fill: none;
    }
    
  </style>
<g><text x="0" y="16" class="leaf">Link</text><text x="0" y="-11" class="wraptext">a</text><rect x="-11.5" y="-28.5" width="57" height="61" class="wrap" rx="4" ry="4"></rect><text x="57" y="16" class="leaf"></text><text x="-230" y="16" class="leaf">Zweiter Text</text><text x="-230" y="-19.5" class="wraptext">p (child body, parent a)</text><rect x="-241.5" y="-37.5" width="316" height="82" class="wrap" rx="4" ry="4"></rect><text x="-230" y="-65.5" class="leaf">Erster Text</text><text x="-230" y="-92.5" class="wraptext">p (child)</text><rect x="-241.5" y="-110.5" width="316" height="61" class="wrap" rx="4" ry="4"></rect><text x="-230" y="-138.5" class="leaf">Angezeigter Titel</text><text x="-230" y="-165.5" class="wraptext">h1 (child)</text><rect x="-241.5" y="-183.5" width="316" height="61" class="wrap" rx="4" ry="4"></rect><text x="-241.5" y="-194.5" class="wraptext">body (parent)</text><rect x="-253.5" y="-212.5" width="340" height="269" class="wrap" rx="4" ry="4"></rect><text x="-230" y="-252.5" class="leaf">Seitentitel</text><text x="-230" y="-279.5" class="wraptext">title</text><rect x="-241.5" y="-297.5" width="316" height="61" class="wrap" rx="4" ry="4"></rect><text x="-241.5" y="-308.5" class="wraptext">head</text><rect x="-253.5" y="-326.5" width="340" height="102" class="wrap" rx="4" ry="4"></rect><text x="-253.5" y="-337.5" class="wraptext">html</text><rect x="-265.5" y="-355.5" width="364" height="424" class="wrap" rx="4" ry="4"></rect></g></svg>
