<svg xmlns="http://www.w3.org/2000/svg" viewBox="0 0 40 40"><path fill="none" stroke="#66798f" stroke-miterlimit="10" d="M30.5 4.956l1.515-1.515c1.255-1.255 3.289-1.255 4.544 0l0 0c1.255 1.255 1.255 3.289 0 4.544L35.044 9.5M9.5 35.044l-1.515 1.515c-1.255 1.255-3.289 1.255-4.544 0l0 0c-1.255-1.255-1.255-3.289 0-4.544L4.956 30.5"/><path fill="#b0c1d4" d="M20,38.5C9.799,38.5,1.5,30.201,1.5,20S9.799,1.5,20,1.5S38.5,9.799,38.5,20S30.201,38.5,20,38.5z"/><path fill="#66798f" d="M20,2c9.925,0,18,8.075,18,18s-8.075,18-18,18S2,29.925,2,20S10.075,2,20,2 M20,1 C9.507,1,1,9.507,1,20s8.507,19,19,19s19-8.507,19-19S30.493,1,20,1L20,1z"/><path fill="#ffeea3" d="M20 4A16 16 0 1 0 20 36A16 16 0 1 0 20 4Z"/><path fill="#ba9b48" d="M13.034,12.498c0.296,0,0.536-0.24,0.536-0.536s-0.24-0.536-0.536-0.536s-0.536,0.24-0.536,0.536 S12.738,12.498,13.034,12.498z M15.177,14.641c0.296,0,0.536-0.24,0.536-0.536s-0.24-0.536-0.536-0.536 c-0.296,0-0.536,0.24-0.536,0.536S14.881,14.641,15.177,14.641z M18.392,11.426c-0.296,0-0.536,0.24-0.536,0.536 s0.24,0.536,0.536,0.536s0.536-0.24,0.536-0.536S18.688,11.426,18.392,11.426z M30.182,22.144c-0.296,0-0.536,0.24-0.536,0.536 s0.24,0.536,0.536,0.536s0.536-0.24,0.536-0.536S30.478,22.144,30.182,22.144z M32.325,20c-0.296,0-0.536,0.24-0.536,0.536 s0.24,0.536,0.536,0.536s0.536-0.24,0.536-0.536S32.621,20,32.325,20z M34.469,23.215c-0.296,0-0.536,0.24-0.536,0.536 s0.24,0.536,0.536,0.536s0.536-0.24,0.536-0.536S34.765,23.215,34.469,23.215z M31.254,26.431c-0.296,0-0.536,0.24-0.536,0.536 s0.24,0.536,0.536,0.536s0.536-0.24,0.536-0.536S31.55,26.431,31.254,26.431z M26.966,26.431c-0.296,0-0.536,0.24-0.536,0.536 s0.24,0.536,0.536,0.536s0.536-0.24,0.536-0.536S27.262,26.431,26.966,26.431z M26.966,15.713c0.296,0,0.536-0.24,0.536-0.536 s-0.24-0.536-0.536-0.536s-0.536,0.24-0.536,0.536S26.671,15.713,26.966,15.713z M31.254,16.785c0.296,0,0.536-0.24,0.536-0.536 s-0.24-0.536-0.536-0.536s-0.536,0.24-0.536,0.536S30.958,16.785,31.254,16.785z M31.254,11.426c0.296,0,0.536-0.24,0.536-0.536 s-0.24-0.536-0.536-0.536s-0.536,0.24-0.536,0.536S30.958,11.426,31.254,11.426z M28.038,7.139c-0.296,0-0.536,0.24-0.536,0.536 s0.24,0.536,0.536,0.536s0.536-0.24,0.536-0.536S28.334,7.139,28.038,7.139z M23.751,8.211c-0.296,0-0.536,0.24-0.536,0.536 s0.24,0.536,0.536,0.536s0.536-0.24,0.536-0.536S24.047,8.211,23.751,8.211z M19.464,4.995c-0.296,0-0.536,0.24-0.536,0.536 s0.24,0.536,0.536,0.536S20,5.827,20,5.531S19.76,4.995,19.464,4.995z M15.177,7.139c0.296,0,0.536-0.24,0.536-0.536 s-0.24-0.536-0.536-0.536c-0.296,0-0.536,0.24-0.536,0.536S14.881,7.139,15.177,7.139z M6.603,16.785 c-0.296,0-0.536,0.24-0.536,0.536s0.24,0.536,0.536,0.536s0.536-0.24,0.536-0.536S6.899,16.785,6.603,16.785z M9.818,20 c-0.296,0-0.536,0.24-0.536,0.536s0.24,0.536,0.536,0.536s0.536-0.24,0.536-0.536S10.114,20,9.818,20z M5.531,21.072 c-0.296,0-0.536,0.24-0.536,0.536s0.24,0.536,0.536,0.536s0.536-0.24,0.536-0.536S5.827,21.072,5.531,21.072z M7.675,11.426 c-0.296,0-0.536,0.24-0.536,0.536s0.24,0.536,0.536,0.536s0.536-0.24,0.536-0.536S7.971,11.426,7.675,11.426z M19.464,20 c-0.296,0-0.536,0.24-0.536,0.536s0.24,0.536,0.536,0.536S20,20.832,20,20.536S19.76,20,19.464,20z M19.464,16.785 c-0.296,0-0.536,0.24-0.536,0.536s0.24,0.536,0.536,0.536S20,17.617,20,17.321S19.76,16.785,19.464,16.785z M11.962,16.785 c-0.296,0-0.536,0.24-0.536,0.536s0.24,0.536,0.536,0.536s0.536-0.24,0.536-0.536S12.258,16.785,11.962,16.785z M34.469,17.856 c0.296,0,0.536-0.24,0.536-0.536s-0.24-0.536-0.536-0.536s-0.536,0.24-0.536,0.536S34.173,17.856,34.469,17.856z M28.038,23.215 c-0.296,0-0.536,0.24-0.536,0.536s0.24,0.536,0.536,0.536s0.536-0.24,0.536-0.536S28.334,23.215,28.038,23.215z M23.751,17.856 c-0.296,0-0.536,0.24-0.536,0.536s0.24,0.536,0.536,0.536s0.536-0.24,0.536-0.536S24.047,17.856,23.751,17.856z M25.895,21.072 c-0.296,0-0.536,0.24-0.536,0.536s0.24,0.536,0.536,0.536s0.536-0.24,0.536-0.536S26.191,21.072,25.895,21.072z M26.966,30.718 c-0.296,0-0.536,0.24-0.536,0.536s0.24,0.536,0.536,0.536s0.536-0.24,0.536-0.536S27.262,30.718,26.966,30.718z M22.679,30.718 c-0.296,0-0.536,0.24-0.536,0.536s0.24,0.536,0.536,0.536s0.536-0.24,0.536-0.536S22.975,30.718,22.679,30.718z M22.679,25.359 c-0.296,0-0.536,0.24-0.536,0.536s0.24,0.536,0.536,0.536s0.536-0.24,0.536-0.536S22.975,25.359,22.679,25.359z M17.321,27.502 c-0.296,0-0.536,0.24-0.536,0.536s0.24,0.536,0.536,0.536s0.536-0.24,0.536-0.536S17.617,27.502,17.321,27.502z M14.105,26.431 c-0.296,0-0.536,0.24-0.536,0.536s0.24,0.536,0.536,0.536s0.536-0.24,0.536-0.536S14.401,26.431,14.105,26.431z M13.034,30.718 c-0.296,0-0.536,0.24-0.536,0.536s0.24,0.536,0.536,0.536s0.536-0.24,0.536-0.536S13.329,30.718,13.034,30.718z M16.249,33.933 c-0.296,0-0.536,0.24-0.536,0.536s0.24,0.536,0.536,0.536s0.536-0.24,0.536-0.536S16.545,33.933,16.249,33.933z M7.675,27.502 c-0.296,0-0.536,0.24-0.536,0.536s0.24,0.536,0.536,0.536s0.536-0.24,0.536-0.536S7.971,27.502,7.675,27.502z M15.177,20 c-0.296,0-0.536,0.24-0.536,0.536s0.24,0.536,0.536,0.536c0.296,0,0.536-0.24,0.536-0.536S15.473,20,15.177,20z"/><path fill="#f78f8f" d="M8.73,19.045c1.943-0.454,3.395,0.637,3.987,1.619l0.183-0.028c0,0,0.409,0.561,0.616,3.26 c0.159,2.07-0.663,3.635-0.663,3.635c-0.121-0.14-0.318-0.398-0.451-0.557c-0.182,0.133-0.425,0.371-0.425,0.371 s-1.191-2.428-1.489-3.209c-0.352-0.921-0.636-1.909-0.636-1.909l0.228-0.206c0,0-1.307-1.315-1.672,0.491 c-0.275,1.363-0.169,3.308,0.055,3.757c0.895,0.798,1.056,1.49,1.307,2.243c-0.275,0.317-0.757,0.303-1.28,0.138 c-0.275-0.261-0.716-1.197-0.916-1.935C7.199,25.336,4.844,20.368,8.73,19.045z"/><path fill="#66798f" d="M12.598 25.041A0.318 0.318 0 1 0 12.598 25.677000000000003A0.318 0.318 0 1 0 12.598 25.041Z"/><path fill="#d66d6d" d="M6.91 20.521l1.795 1.268c.002-.002.004-.004.006-.006L7.098 20.21C7.028 20.31 6.966 20.414 6.91 20.521zM8.242 24.368L6.891 24.58c.02.072.041.139.061.209L8.242 24.368zM6.58 23.053l1.761-.128c0-.003.001-.006.002-.009l-1.793-.157C6.557 22.857 6.568 22.954 6.58 23.053zM9.784 18.957l-.239 2.693c.001.001.003.001.004.002l.663-2.657C10.074 18.972 9.93 18.964 9.784 18.957zM10.079 22.021l2.637-1.356c-.077-.127-.169-.256-.274-.384L10.079 22.021z"/><path fill="#f78f8f" d="M21.342,13.429c0.959,0.828,0.94,1.981,0.656,2.652l0.083,0.083c0,0-0.136,0.419-1.444,1.533 c-1.003,0.854-2.114,1.016-2.114,1.016c0.027-0.114,0.086-0.312,0.118-0.44c-0.136-0.044-0.349-0.079-0.349-0.079 s0.803-1.518,1.093-1.962c0.342-0.524,0.743-1.039,0.743-1.039l0.191,0.04c0,0,0.188-1.162-0.876-0.675 c-0.803,0.367-1.762,1.148-1.909,1.43c-0.076,0.757-0.371,1.098-0.664,1.509c-0.265-0.023-0.438-0.276-0.548-0.606 c0.032-0.239,0.348-0.814,0.652-1.193C17.54,14.99,19.212,11.927,21.342,13.429z"/><path fill="#66798f" d="M19.543 17.569A0.202 0.202 0 1 0 19.543 17.973000000000003A0.202 0.202 0 1 0 19.543 17.569Z" transform="rotate(-36.002 19.544 17.772)"/><path fill="#d66d6d" d="M19.905 13.045l.018 1.395c.002 0 .004.001.006.001l.206-1.416C20.057 13.026 19.981 13.033 19.905 13.045zM18.426 15.164l-.613-.615c-.03.037-.056.073-.084.11L18.426 15.164zM18.482 13.82l.723.857c.002-.001.004-.002.005-.003l-.589-.98C18.574 13.735 18.528 13.777 18.482 13.82zM21.78 13.937l-1.473.882c0 .001 0 .002 0 .003l1.612-.651C21.881 14.092 21.831 14.014 21.78 13.937zM20.317 15.232l1.68.848c.037-.087.068-.183.095-.284L20.317 15.232z"/><path fill="#f78f8f" d="M26.767,23.876c1.253,1.083,1.228,2.59,0.858,3.466l0.108,0.109c0,0-0.177,0.548-1.888,2.004 c-1.312,1.116-2.764,1.328-2.764,1.328c0.035-0.149,0.112-0.408,0.154-0.575c-0.178-0.058-0.456-0.104-0.456-0.104 s1.049-1.984,1.428-2.565c0.447-0.685,0.971-1.358,0.971-1.358l0.25,0.052c0,0,0.245-1.519-1.145-0.883 c-1.049,0.48-2.304,1.5-2.495,1.87c-0.1,0.99-0.485,1.436-0.868,1.972c-0.347-0.03-0.573-0.36-0.717-0.792 c0.041-0.312,0.455-1.065,0.852-1.559C21.798,25.917,23.984,21.913,26.767,23.876z"/><path fill="#66798f" d="M24.416 29.288A0.264 0.264 0 1 0 24.416 29.816A0.264 0.264 0 1 0 24.416 29.288Z" transform="rotate(-36.002 24.417 29.553)"/><path fill="#d66d6d" d="M24.889 23.374l.024 1.823c.003 0 .005.001.007.001l.269-1.85C25.088 23.35 24.988 23.359 24.889 23.374zM22.956 26.145l-.801-.804c-.039.048-.073.095-.11.143L22.956 26.145zM23.029 24.387l.945 1.12c.002-.001.005-.002.007-.003l-.769-1.281C23.149 24.276 23.089 24.331 23.029 24.387zM27.34 24.54l-1.925 1.153c0 .001 0 .002.001.004l2.107-.851C27.472 24.742 27.407 24.642 27.34 24.54zM25.428 26.233l2.197 1.109c.048-.114.09-.239.124-.371L25.428 26.233z"/><g><path fill="#fff" d="M10.681,12.851c0.079,0,0.525,0.084,1.614,1.733c0.311,0.471,0.465,1.02,0.422,1.506 c-0.021,0.236-0.11,0.667-0.472,0.907c-0.158,0.104-0.344,0.157-0.554,0.157c-0.599,0-1.26-0.415-1.684-1.058 c-0.654-0.991-0.259-2.426,0.52-3.144C10.605,12.877,10.662,12.851,10.681,12.851 M10.681,11.851c-0.276,0-0.555,0.109-0.832,0.364 c-1.168,1.075-1.586,3.055-0.678,4.431c0.633,0.959,1.613,1.507,2.519,1.507c0.394,0,0.774-0.104,1.105-0.322 c1.093-0.722,1.243-2.422,0.334-3.798C12.436,12.983,11.571,11.851,10.681,11.851L10.681,11.851z"/></g><g><path fill="#fff" d="M24.501,7.35c1.296,0,2.618,0.979,3.075,2.277c0.097,0.274,0.039,0.373,0.015,0.415 c-0.164,0.283-0.794,0.697-2.862,1.07c-0.21,0.038-0.422,0.057-0.631,0.057c-1.183,0-2.151-0.61-2.302-1.45 c-0.182-1.009,0.855-2.075,2.263-2.329C24.203,7.363,24.352,7.35,24.501,7.35 M24.501,6.35c-0.206,0-0.413,0.018-0.619,0.055 c-1.978,0.356-3.353,1.919-3.07,3.49c0.244,1.354,1.639,2.273,3.286,2.273c0.264,0,0.535-0.024,0.808-0.073 c1.978-0.356,4.257-0.976,3.613-2.801C27.943,7.66,26.266,6.35,24.501,6.35L24.501,6.35z"/></g><g><path fill="#f78f8f" d="M13.681,12.614c-0.315,1.821-1.337,3.163-1.662,3.109c-0.325-0.055-0.836-1.665-0.521-3.486 c0.315-1.821,1.059-3.213,1.662-3.109C13.763,9.232,13.996,10.793,13.681,12.614z"/></g><path fill="#66798f" d="M12.019 15.715c0 0-1.665-1.041-1.665-3.747 0-2.664 1.665-3.747 1.665-3.747V15.715zM12.063 15.723c0 0 1.924-.391 2.873-2.925.934-2.495-.246-4.093-.246-4.093L12.063 15.723z"/><g><path fill="#f78f8f" d="M31.74,20.055c1.831-0.254,3.42,0.311,3.467,0.637c0.047,0.326-1.362,1.141-3.162,1.557 c-1.461,0.338-3.467-0.637-3.467-0.637C28.494,21.006,29.91,20.309,31.74,20.055z"/></g><path fill="#66798f" d="M35.2 20.694c0 0-.485 1.903-3.062 2.726-.833-.84-1.723-1.198-1.723-1.198L35.2 20.694zM35.195 20.65c0 0-.958-1.714-3.661-1.847-2.661-.131-3.824 1.479-3.824 1.479L35.195 20.65z"/><g><path fill="#f78f8f" d="M19.242,30.041c1.065,1.511,1.291,3.182,1.023,3.373c-0.269,0.191-1.769-0.586-2.834-2.097 c-1.065-1.511-1.523-3.021-1.023-3.373S18.178,28.531,19.242,30.041z"/></g><path fill="#66798f" d="M20.261 33.409c0 0-1.913.442-3.827-1.472-1.884-1.884-1.472-3.827-1.472-3.827L20.261 33.409zM20.297 33.384c0 0 1.085-1.637-.036-4.1-1.104-2.425-3.068-2.72-3.068-2.72L20.297 33.384zM24.225 14.621c.389-2.249 2.569-4.386 3.34-4.254.77.131 2.225 2.901 1.835 5.15s-1.815 3.241-3.244 2.994S23.836 16.87 24.225 14.621z"/><g><path fill="#f78f8f" d="M25.766,15.285c0.173-1.002,1.144-1.953,1.487-1.895c0.343,0.058,0.991,1.292,0.818,2.294 s-0.809,1.444-1.445,1.334C25.989,16.907,25.592,16.287,25.766,15.285z"/></g></svg>